<?xml version="1.0" encoding="utf-8"?>
<!-- Generator: Adobe Illustrator 21.0.0, SVG Export Plug-In . SVG Version: 6.00 Build 0)  -->
<svg version="1.1" id="Layer_1" xmlns="http://www.w3.org/2000/svg" xmlns:xlink="http://www.w3.org/1999/xlink" x="0px" y="0px"
	 viewBox="0 0 300.7 55.1" style="enable-background:new 0 0 300.7 55.1;" xml:space="preserve">
<style type="text/css">
	.st0{fill:#0F2D52;}
	.st1{fill:#EBAB21;}
	.st2{fill:#182A54;}
</style>
<g>
	<path class="st0" d="M60,27.3c0.9,2.2,1.1,3.1,1.6,3.1c0.3,0,0.6-0.2,0.8-0.8l3.5-8.7c0.1-0.2,0.2-0.2,0.3-0.2
		c0.1,0,0.2,0.1,0.2,0.3l3.4,8.2c0.4,1,0.6,1.2,0.8,1.2c0.5,0,0.7-0.6,0.9-1l8.1-19c1-2.5,1.8-1.6,1.8-2.3c0-0.3-0.2-0.3-0.4-0.3
		c-0.7,0-1.7,0.1-2.6,0.1c-0.8,0-1.5-0.1-2.2-0.1c-0.2,0-0.3,0.2-0.3,0.5c0,0.6,2,0.4,2,1.8c0,0.4-0.1,0.7-0.2,1L72,25
		c-0.3,0.7-0.5,1.2-0.7,1.2c-0.2,0-0.4-0.3-0.7-1L68,18.7c-0.2-0.5-0.4-1.2-0.4-1.5c0-0.3,0-0.6,0.3-1.2l2.2-5.1
		c1.4-3.3,2.2-2.1,2.2-3c0-0.1-0.1-0.2-0.2-0.2c-0.5,0-0.9,0.1-2.3,0.1c-0.7,0-1.3-0.1-2-0.1c-0.2,0-0.6,0-0.6,0.3
		c0,0.7,1.8,0.5,1.8,1.8c0,0.3-0.2,0.8-0.3,1.1l-1.5,3.7c-0.2,0.4-0.3,0.8-0.4,0.8c-0.1,0-0.2-0.2-0.4-0.8l-1.6-4.1
		c-0.2-0.4-0.2-0.6-0.2-0.9c0-1,1.3-0.9,1.3-1.4c0-0.2-0.1-0.4-0.2-0.4c-0.7,0-1.5,0.1-3,0.1c-0.4,0-2.1-0.1-3.2-0.1
		c-0.3,0-0.5,0-0.5,0.3c0,1.1,2.2-0.1,3,2l3.1,7.5c0.2,0.4,0.3,0.8,0.3,1s-0.1,0.7-0.4,1.3l-2.3,5.5c-0.1,0.3-0.3,0.6-0.4,0.6
		c-0.2,0-0.4-0.5-0.5-0.8l-6-14.7c-0.1-0.3-0.2-0.6-0.2-0.8c0-1.1,1.3-1.1,1.3-1.5c0-0.2-0.1-0.4-0.3-0.4c-0.8,0-1.5,0.1-2.3,0.1
		c-0.9,0-1.8-0.1-2.8-0.1c-0.3,0-0.7,0.1-0.7,0.5c0,0.6,1.5,0.2,2.3,2.1L60,27.3L60,27.3L60,27.3z"/>
	<path class="st0" d="M78.4,21c0-1.7,1.4-3.9,3.3-3.9c1.7,0,3.5,1.6,3.5,3.3c0,0.5-0.2,0.6-0.6,0.6H78.4L78.4,21L78.4,21z
		 M86.8,21.8c0.7,0,1.1,0,1.1-0.5c0-1.3-1.7-5-5.5-5c-3.9,0-6.1,3.4-6.1,7.4c0,2.1,1.6,6.4,6.3,6.4c2.8,0,5.5-2.3,5.5-3
		c0-0.1,0-0.2-0.1-0.2c-0.7,0-1.7,1.6-4.4,1.6c-1.9,0-5-1.5-5-6.7H86.8L86.8,21.8L86.8,21.8z"/>
	<path class="st0" d="M93.1,24c1.3,0.6,2.9,1.1,2.9,2.8c0,1.6-1.3,2.6-2.8,2.6c-3.4,0-3-4.1-3.7-4.1c-0.5,0-0.4,1-0.4,1.5
		c0,2.5,0,2.5,0.7,2.5c0.8,0,1.3,0.9,3.5,0.9c2.3,0,4.2-1.9,4.2-4.3c0-2-0.8-3-2.6-3.7c-3.3-1.3-4.1-2-4.1-3c0-1.3,1-2,2.2-2
		c2.8,0,3.1,2.7,3.4,2.7c0.5,0,0.3-0.4,0.3-1.2c0-0.2,0-1.3-0.2-1.5c-0.4-0.5-2.5-0.7-3.1-0.7c-2.3,0-4.2,1.3-4.2,3.8
		C89.3,22.3,91.4,23.1,93.1,24L93.1,24L93.1,24L93.1,24z"/>
	<path class="st0" d="M99.6,26.5c0,3.2,2.1,3.6,3.5,3.6c2.2,0,3.9-1.1,3.9-1.5c0-0.3-0.1-0.3-0.3-0.3c-0.5,0-1,0.7-2.7,0.7
		c-1.3,0-2.1-0.6-2.2-1.9V18h4.1l0.4-1.1c0.1-0.2-0.3-0.1-1.1-0.1h-3.4c0-2.3,0-2.9-0.4-2.9c-0.3,0-0.5-0.2-0.6,0.8
		c-0.3,2.1-2,2.9-2,3.1c0.2-0.2-0.6,0.3,0.7,0.3V26.5L99.6,26.5L99.6,26.5z"/>
	<path class="st0" d="M115.3,28.4c0.3,0.7,0.7,2,1.2,2c0.5,0,0.7-1,1-1.8l7.8-18.5c0.9-2.1,1.8-1.3,1.8-2c0-0.3-0.2-0.4-0.5-0.4
		c-0.4,0-0.9,0.1-2.4,0.1c-0.7,0-1.4-0.1-2.1-0.1c-0.3,0-0.5,0.1-0.5,0.4c0,0.7,2,0.1,2,1.6c0.1,0.7-0.3,1.7-0.4,2.1l-5.5,13.4
		c-0.2,0.4-0.3,0.9-0.6,0.9c-0.3,0-0.6-0.7-1.3-2.4l-5.5-12.9c-0.1-0.3-0.3-0.8-0.3-1.2c0-1.1,1.3-1.2,1.3-1.6
		c0-0.2-0.3-0.3-0.4-0.3c-0.4,0-1.6,0.1-2.5,0.1c-0.9,0-1.9-0.1-2.9-0.1c-0.3,0-0.4,0.2-0.4,0.4c0,0.7,1.6,0.1,2.4,2L115.3,28.4
		L115.3,28.4L115.3,28.4z"/>
	<path class="st0" d="M151.3,11.8c-0.4,0-1.3,1.3-1.3,1.7s0.9,1.6,1.3,1.6c0.4,0,1.3-1.3,1.3-1.6C152.6,13.1,151.7,11.8,151.3,11.8
		L151.3,11.8L151.3,11.8L151.3,11.8z"/>
	<path class="st0" d="M172.7,11.6c-0.4,0-1.3,1.3-1.3,1.7s0.9,1.6,1.3,1.6c0.4,0,1.3-1.3,1.3-1.6C174,12.9,173.1,11.6,172.7,11.6
		L172.7,11.6L172.7,11.6L172.7,11.6z"/>
	<path class="st0" d="M184.3,22.3c-7.3,1.2-7.9,3.2-7.9,4.9c0,2.2,1.3,3,3.4,3c1.8,0,3.5-0.7,4.8-1.8c0.4,1,1.2,1.6,2.4,1.6
		c0.4,0,1.8-0.1,1.8-0.8c0-0.2-0.3-0.2-0.4-0.2c-0.1,0-0.4,0.1-0.5,0.1c-1.6,0-1.3-1.8-1.3-2.9v-6.5c0-2.7-3-3.2-4.9-3.2
		c-3.5-0.1-5.2,2.1-5.3,3.5c0,0.6,0.9,1,1.5,1c0.6,0,0.7-0.2,0.7-0.6c0-0.3-0.2-0.8-0.2-1.3c0-1.7,1.2-1.9,2.7-1.9
		c1.9,0,3.2,1.1,3.2,2.7V22.3L184.3,22.3L184.3,22.3z M184.3,26.7c0,1.7-2.1,2.5-3.3,2.5c-1.7,0-2.6-0.7-2.6-2.5
		c0-2.8,3.8-3.3,5.8-3.7V26.7L184.3,26.7L184.3,26.7z"/>
	<path class="st0" d="M129.2,29.2c-0.3,0-2.3,0-2.3-1.3V16.6c0-0.3-0.2-0.5-0.4-0.5c-0.7,0-1.3,1-3.4,1.6c-0.2,0-0.3,0.2-0.3,0.3
		c0,0.7,1.7-0.2,1.7,1.7v7.4c0,2.9-1.4,1.7-1.4,2.4c0,0.3,0.2,0.3,0.5,0.3c0.3,0,1.2-0.1,2.2-0.1c1.3,0,2.3,0.1,2.9,0.1
		c0.1,0,0.3,0,0.4,0c0.1,0,0.1,0,0.2,0c0.2,0,0.8-0.1,2.9-0.1c1.8,0,2.5,0.1,2.9,0.1c0.3,0,0.5-0.1,0.5-0.3c0-1-2.8,0.5-2.8-2.4l0-7
		c0-0.4,2.5-4.8,6.3-4.6c1.1,0,0.9,0.1,1.7-1.1c0.3-0.5-1.1-0.5-1.8-0.4c-4.2,0.3-5.2,3.2-6.2,4.7v-0.1l0-2.1c0-0.3-0.2-0.5-0.4-0.5
		c-0.7,0-1.3,1-3.8,1.6c-0.2,0-0.4,0.2-0.4,0.3c0,0.7,2.3-0.2,2.3,1.7v8.1C130.6,28.8,129.6,29.2,129.2,29.2L129.2,29.2L129.2,29.2
		L129.2,29.2z"/>
	<path class="st0" d="M170.2,29.1c-0.3,0-2.3,0.1-2.3-1.8v-5.2c0-2.4-0.9-5.9-5.1-5.9c-3,0-4.6,2.7-4.5,2.3v-2.1
		c0-0.3-0.2-0.5-0.4-0.5c-0.7,0-1.3,1-3.9,1.6c-0.2,0-0.3,0.2-0.3,0.3c0,0.7,2.3-0.2,2.3,1.7v7.8c0,1.4-1.1,1.6-1.5,1.6
		c-0.2,0-2.1,0-2.1-1.3V16.6c0-0.3-0.2-0.5-0.4-0.5c-0.7,0-1.3,1-3.4,1.6c-0.2,0-0.5,1.1-0.4,1.1c1-0.1,1.8-0.9,1.8,1v7.4
		c0,2.9-1.4,1.7-1.4,2.4c0,0.3,0.2,0.3,0.5,0.3c0.3,0,1.2-0.1,2.2-0.1c1.3,0,2.3,0.1,2.9,0.1c0.1,0,0.2,0,0.3,0c0.1,0,0.1,0,0.2,0
		c0.4,0,1-0.1,2.7-0.1c1.8,0,2.4,0.1,3,0.1c0.5,0,0.7-0.1,0.7-0.4c0-0.8-2.8,0.1-2.8-2.1v-7.2c0-0.5,1.1-2.4,3.7-2.4
		c2.5,0,3.7,2.3,3.7,3.9v5.9c0,2-1.3,1.4-1.3,2c0,0.3,0.2,0.4,0.6,0.4c0.4,0,1.1-0.1,2.3-0.1c1.5,0,2.3,0.1,2.7,0.1
		c0.2,0,0.3,0,0.4,0c0.1,0,0.2,0,0.3,0c0.3,0,1.2-0.1,2.2-0.1c1.3,0,2.3,0.1,2.9,0.1c0.4,0,0.6-0.1,0.6-0.3c0-0.8-2.5-0.1-2.5-1.7
		V16.6c0-0.3-0.2-0.5-0.4-0.5c-0.7,0-1.3,1-3.4,1.6c-0.2,0-0.3,0.2-0.3,0.3c0,0.7,1.7-0.2,1.7,1.7v7.4
		C171.4,29.2,170.6,29.1,170.2,29.1L170.2,29.1L170.2,29.1L170.2,29.1z"/>
	<path class="st0" d="M142.1,25.2c-2.2,0-3-2.2-3-4c0-1.7,0.5-3.6,2.9-3.6c2.2,0,3,2.2,3,4.1C144.9,22.8,144.6,25.2,142.1,25.2
		L142.1,25.2L142.1,25.2z M149.9,17.6c-0.1-0.2-0.5-0.2-0.6-0.2l-0.1,0c-1,0.3-1.8,0.5-2.5,0.5c-0.4,0-0.7-0.1-0.9-0.2
		c-0.3-0.1-0.5-0.3-0.7-0.4c-0.7-0.4-1.3-0.8-3.4-0.8c-3,0-5.3,2.2-5.3,5.1c0,1.6,0.7,3.1,1.9,3.9c-0.5,0.4-1.5,1.5-1.5,2.6
		c0,1.4,0.5,2.3,1.3,2.7c0.7,0.4,2.1,0.6,4.2,0.7c3.4,0.1,4.1,0.2,4.1,1.3c0,0.5-0.2,2.9-5,2.9c-1.2,0-4-0.2-4-2.3
		c0-0.7,0.1-0.8,0.4-1.3c0.1-0.1,0.1-0.3,0.1-0.5c-0.1-0.2-0.3-0.3-0.5-0.3c0,0-0.1,0-0.2,0c-0.6,0.2-1.5,0.5-1.5,2
		c0,2.8,3.6,3.5,5.5,3.5c5.2,0,7.1-2.6,7.1-4.8c0-3-3.3-3-5-3c-0.2,0-0.5,0-0.7,0c-0.2,0-0.4,0-0.7,0c-2.2,0-3-0.4-3.3-0.7
		c-0.2-0.2-0.2-0.4-0.2-0.6c0-0.6,0.7-1.5,1.3-1.5c0.1,0,0.2,0,0.3,0.1c0.3,0.1,0.7,0.2,1.8,0.2c3.1,0,5.4-2.1,5.4-5
		c0-0.5-0.1-1.1-0.2-1.7c-0.1-0.1-0.1-0.2-0.2-0.3c0-0.1-0.1-0.2-0.1-0.2c1.1-0.1,2.9-0.5,3-0.9C149.9,18.1,150,17.9,149.9,17.6
		L149.9,17.6L149.9,17.6z"/>
	<path class="st0" d="M257.1,29.2c-0.2,0-0.4,0.5,0,0.7c0.1,0.1-0.1,0,0,0c0.1,0,0.1,0,0.2,0c0.2,0,0.8-0.1,2.9-0.1
		c1.8,0,2.5,0.1,2.9,0.1c0.3,0,0.5-0.1,0.5-0.3c0-1-2.8,0.5-2.8-2.4l0-7c0-0.4,2.5-4.8,6.3-4.6c1.1,0.1,0.9,0.1,1.7-1.1
		c0.3-0.5-1.1-0.5-1.8-0.4c-4.2,0.3-5.1,3.2-6.2,4.7v-0.1l0-2.1c0-0.3-0.2-0.5-0.4-0.5c-0.7,0-1.3,1-3.8,1.6c-0.2,0-0.4,0.2-0.4,0.3
		c0,0.7,2.3-0.2,2.3,1.7v8.1C258.6,28.7,257.4,29,257.1,29.2L257.1,29.2L257.1,29.2L257.1,29.2z"/>
	<path class="st0" d="M298,18.8c0.6-1.9,1.7-1.1,1.7-1.8c0-0.3-0.2-0.4-0.6-0.4c-0.3,0-0.9,0.1-1.6,0.1c-0.9,0-1.4-0.1-1.8-0.1
		c-0.6,0-0.9,0-0.9,0.3c0,0.7,2,0.2,2,1.9c0,0.2,0,0.5-0.4,1.6c-2.1,6.8-2.4,7.1-2.4,7.1l-3.4-8.5l0.1-0.1c0.1,0.3-0.2-0.2-0.2-0.7
		c0-1.3,1.8-0.6,1.8-1.3c0-0.3-0.2-0.4-0.7-0.4c-0.5,0-1.2,0.1-2.3,0.1c-0.8,0-1.5-0.1-2.2-0.1c-0.4,0-0.5,0-0.6,0.3
		c-0.8,1.6,1.2,0.5,1.5,1.2l4.1,10.1c0.3,0.7,0.6,1.3,0.6,2.1c0,2.4-3,7.8-7.7,7.2c-0.2,0-0.5-0.1-0.7,0.1c0.1,0-0.4-0.1,0.5,1.3
		c0.4,0.3,1,0.4,2.1,0.2c3.2-0.7,5.4-3.9,5.4-4C294.1,32.6,298,18.8,298,18.8L298,18.8L298,18.8L298,18.8z"/>
	<path class="st0" d="M193.4,10.2c0-2.3,2.1-1.4,2.1-2.3c0-0.4-0.8-0.3-1-0.3c-1,0-2,0.1-3,0.1c-0.8,0-1.6-0.1-2.4-0.1
		c-0.2,0-0.7,0.1-0.7,0.3c0,1,2.5,0.3,2.5,2.1v10.6c0,4.8,1.6,9.4,9.8,9.4c9.1,0,8.7-7.7,8.7-9.3v-9.7c0-2.9,1.8-2.2,1.8-3.1
		c0-0.2-0.3-0.3-0.4-0.3c-0.6,0-1.1,0.1-1.7,0.1c-1.2,0-2.4-0.1-3.7-0.1c-0.1,0-0.3,0.2-0.3,0.3c0,1.2,2.9-0.1,2.9,3.1v10.2
		c0,3.7-1.3,7.6-7.2,7.6c-4.2,0-7.5-2.3-7.5-7.3V10.2L193.4,10.2L193.4,10.2z"/>
	<path class="st0" d="M246.9,20.9c0-1.7,1.4-3.9,3.3-3.9c1.7,0,3.5,1.6,3.5,3.3c0,0.5-0.2,0.6-0.6,0.6H246.9L246.9,20.9L246.9,20.9z
		 M255.3,21.8c0.7,0,1.1,0,1.1-0.5c0-1.3-1.7-5-5.5-5c-3.9,0-6.1,3.4-6.1,7.4c0,2.1,1.6,6.4,6.3,6.4c2.8,0,5.5-2.3,5.5-3
		c0-0.1,0-0.2-0.1-0.2c-0.7,0-1.7,1.6-4.4,1.6c-1.9,0-5-1.5-5-6.7H255.3L255.3,21.8L255.3,21.8z"/>
	<path class="st0" d="M269.1,23.9c1.3,0.6,2.9,1.1,2.9,2.8c0,1.6-1.3,2.6-2.8,2.6c-3.4,0-3-4.1-3.7-4.1c-0.5,0-0.4,1-0.4,1.5
		c0,2.5,0,2.5,0.7,2.5c0.8,0,1.3,0.9,3.5,0.9c2.3,0,4.2-1.9,4.2-4.3c0-2-0.8-3-2.6-3.7c-3.3-1.3-4.1-2-4.1-3c0-1.3,1-2,2.2-2
		c2.9,0,3.1,2.7,3.4,2.7c0.5,0,0.3-0.4,0.3-1.2c0-0.2,0-1.3-0.2-1.5c-0.4-0.5-2.5-0.7-3.1-0.7c-2.3,0-4.2,1.3-4.2,3.8
		C265.4,22.3,267.4,23.1,269.1,23.9L269.1,23.9L269.1,23.9L269.1,23.9z"/>
	<path class="st0" d="M281.6,26.4c0,3.2,2.1,3.6,3.5,3.6c2.2,0,3.9-1.1,3.9-1.5c0-0.3-0.1-0.3-0.3-0.3c-0.5,0-1,0.7-2.7,0.7
		c-1.3,0-2.1-0.6-2.2-1.9V18h4.1l0.4-1.1c0.1-0.2-0.3-0.1-1.1-0.1h-3.4c0-2.3,0-2.9-0.4-2.9c-0.3,0-0.5-0.2-0.6,0.8
		c-0.3,2.1-2,2.9-2,3.1c0.2-0.2-0.6,0.3,0.7,0.3V26.4L281.6,26.4L281.6,26.4z"/>
	<path class="st0" d="M236.7,19.5c-0.4-0.9-0.5-1.4-0.5-1.5c0-0.9,1.8-0.5,1.8-1.1c0-0.3-0.3-0.3-0.7-0.3c-0.4,0-0.8,0.1-1.9,0.1
		c-2,0-2-0.1-2.6-0.1c-0.6,0-0.6,0.2-0.6,0.4c0,0.6,1.1,0.1,1.7,1.5l4.7,10.7c0.1,0.2,0.2,0.7,0.6,0.7c0.5,0,0.5-0.4,1-1.6l4.7-10
		c0.4-0.9,1.5-0.7,1.5-1.1c0-0.4-0.5-0.5-0.8-0.5c-0.5,0-1.1,0.1-1.6,0.1c-0.7,0-1.3-0.1-1.9-0.1c-0.4,0-0.7,0-0.7,0.4
		c0,0.8,1.9-0.1,1.9,1.6c0,1.4-0.8,2.7-1.4,3.9l-2.1,4.4L236.7,19.5L236.7,19.5L236.7,19.5z"/>
	<path class="st0" d="M227.3,29.9c0.1,0,0.1,0,0.3,0c0.3,0,1.2-0.1,2.2-0.1c1.3,0,2.3,0.1,2.9,0.1c0.4,0,0.6-0.1,0.6-0.3
		c0-0.8-2.5-0.1-2.5-1.7V16.5c0-0.3-0.2-0.5-0.4-0.5c-0.7,0-1.3,1-3.4,1.6c-0.2,0-0.3,0.2-0.3,0.3c0,0.7,1.7-0.2,1.7,1.7v7.4
		c0,2.1-0.8,2-1.2,2c-0.1,0-2.4,0.1-2.4-1.8v-5.2c0-2.4-0.9-5.9-5.1-5.9c-3,0-4.6,2.7-4.5,2.3v-2.1c0-0.3-0.2-0.5-0.4-0.5
		c-0.7,0-1.3,1-3.9,1.6c-0.2,0-0.3,0.2-0.3,0.3c0,0.7,2.3-0.2,2.3,1.7v7.8c0,2-1.8,1.4-1.8,2c0,0.3,0.2,0.4,0.6,0.4
		c0.4,0,1-0.1,2.7-0.1c1.8,0,2.4,0.1,3,0.1c0.5,0,0.7-0.1,0.7-0.4c0-0.8-2.8,0.1-2.8-2.1v-7.2c0-0.5,1.1-2.4,3.7-2.4
		c2.5,0,3.7,2.3,3.7,3.9v5.9c0,2-1.3,1.4-1.3,2c0,0.3,0.2,0.4,0.6,0.4c0.4,0,1.1-0.1,2.3-0.1c1.5,0,2.3,0.1,2.7,0.1
		C227,29.8,227.2,29.9,227.3,29.9L227.3,29.9L227.3,29.9L227.3,29.9z"/>
	<path class="st0" d="M229.9,11.8c-0.4,0-1.3,1.3-1.3,1.7c0,0.3,0.9,1.6,1.3,1.6c0.4,0,1.3-1.3,1.3-1.6
		C231.2,13.1,230.3,11.8,229.9,11.8L229.9,11.8L229.9,11.8L229.9,11.8z"/>
	<path class="st0" d="M275.9,26.9c0,2.9-1.4,1.7-1.4,2.4c0,0.3,0.2,0.3,0.5,0.3c0.3,0,1.2-0.1,2.2-0.1c1.3,0,2.3,0.1,2.9,0.1
		c0.4,0,0.6-0.1,0.6-0.3c0-0.8-2.5-0.1-2.5-1.7V16.4c0-0.3-0.2-0.5-0.4-0.5c-0.7,0-1.3,1-3.4,1.6c-0.2,0-0.3,0.2-0.3,0.3
		c0,0.7,1.7-0.2,1.7,1.7V26.9L275.9,26.9L275.9,26.9z"/>
	<path class="st0" d="M277.2,11.8c-0.4,0-1.3,1.3-1.3,1.7c0,0.3,0.9,1.6,1.3,1.6c0.4,0,1.3-1.3,1.3-1.6
		C278.5,13.1,277.6,11.8,277.2,11.8L277.2,11.8L277.2,11.8L277.2,11.8z"/>
	<path class="st0" d="M298,28.4v-0.8h0.5c0.3,0,0.5,0.1,0.5,0.4c0,0.4-0.3,0.4-0.6,0.4H298L298,28.4z M298,28.7h0.4l0.7,1.1h0.4
		l-0.7-1.1c0.4,0,0.6-0.2,0.6-0.7c0-0.5-0.3-0.7-0.9-0.7h-0.9v2.5h0.4V28.7L298,28.7z M296.8,28.6c0-1,0.8-1.8,1.7-1.8
		c1,0,1.7,0.8,1.7,1.8c0,1-0.8,1.8-1.7,1.8C297.5,30.4,296.8,29.6,296.8,28.6L296.8,28.6L296.8,28.6L296.8,28.6z M298.5,30.7
		c1.2,0,2.2-0.9,2.2-2.1c0-1.2-1-2.1-2.2-2.1c-1.2,0-2.2,0.9-2.2,2.1C296.3,29.8,297.3,30.7,298.5,30.7L298.5,30.7L298.5,30.7
		L298.5,30.7z"/>
	<path class="st1" d="M47.3,0h-7.9l-0.5,0c-1.5,0-2,0.5-2.4,1.2l-6.2,9.2l-5.9-9l-0.2-0.3c0,0-0.2-0.3-0.4-0.3l0,0c0,0,0,0,0,0h0
		l0,0c-0.3,0-0.4,0.3-0.4,0.3L23,1.4l-5.8,9l-6.4-9.2C10.4,0.5,9.9,0,8.4,0L7.9,0H0l0,7.5h4.7c1,0,1.4,0,2.1,0.8L7,8.8l9.4,14.7
		c0,0,0.3,0.5,0.8,0.5c0.6,0,0.9-0.5,0.9-0.5l5.5-8.2l0,0l0,0l5.7,8.2c0,0,0.3,0.5,0.8,0.5c0.5,0,0.8-0.5,0.8-0.5l9.3-14.7l0.3-0.4
		c0.5-0.8,1.1-0.8,2.1-0.8l4.7,0L47.3,0L47.3,0z"/>
	<path class="st1" d="M35.3,21.1l-5.1,8l-6.5-9.5l-5,7.4l10.6,16.6c0.4,0.6,0.7,0.7,0.8,0.7c0.3,0,0.5-0.2,0.9-0.7l8.3-15.2
		c0.7-1.3,2-1.3,2-1.3h6v-7.5h-9.4C36.2,19.7,35.3,21.1,35.3,21.1L35.3,21.1L35.3,21.1z"/>
	<path class="st2" d="M56.4,54.8h1.5v-11h-1.5V54.8L56.4,54.8z M60.3,54.8h1.4V46h0l5.7,8.8h1.6v-11h-1.4v8.9h0l-5.8-8.9h-1.6V54.8
		L60.3,54.8z M79.2,47c-0.1-2.4-1.8-3.5-4-3.5c-2,0-4,1-4,3.2c0,2,1.8,2.5,3.5,2.9c1.8,0.4,3.5,0.6,3.5,2.2c0,1.6-1.5,2-2.8,2
		c-1.7,0-3.2-0.8-3.2-2.6h-1.4c0,2.7,2.1,3.9,4.5,3.9c2,0,4.3-0.9,4.3-3.3c0-2.2-1.8-2.8-3.5-3.2c-1.8-0.4-3.5-0.6-3.5-2
		c0-1.4,1.2-1.9,2.5-1.9c1.5,0,2.6,0.7,2.7,2.2H79.2L79.2,47z M83.9,54.8h1.5v-9.8H89v-1.2h-8.8v1.2h3.7V54.8L83.9,54.8z M90.3,54.8
		h1.5v-11h-1.5V54.8L90.3,54.8z M96.7,54.8h1.5v-9.8h3.7v-1.2h-8.8v1.2h3.7V54.8L96.7,54.8z M111.9,43.8h-1.5v7c0,1.9-1,3-2.9,3
		c-1.9,0-3-1.1-3-3v-7H103v7c0,2.9,1.7,4.2,4.5,4.2c2.7,0,4.3-1.5,4.3-4.2V43.8L111.9,43.8z M116.7,54.8h1.5v-9.8h3.7v-1.2H113v1.2
		h3.7V54.8L116.7,54.8z M123,54.8h7.6v-1.2h-6.2v-3.8h5.7v-1.2h-5.7v-3.5h6.1v-1.2H123V54.8L123,54.8z M136.1,49.3
		c0,3,1.8,5.8,5.3,5.8c3.5,0,5.3-2.8,5.3-5.8c0-3-1.8-5.8-5.3-5.8C137.9,43.6,136.1,46.3,136.1,49.3L136.1,49.3z M137.6,49.3
		c0-2.2,1.1-4.5,3.8-4.5c2.7,0,3.8,2.3,3.8,4.5c0,2.2-1.1,4.5-3.8,4.5C138.7,53.9,137.6,51.5,137.6,49.3L137.6,49.3z M148.4,54.8
		h1.5v-5h5.1v-1.2h-5.1v-3.5h5.8v-1.2h-7.2V54.8L148.4,54.8z M164.1,54.8h1.5v-9.8h3.7v-1.2h-8.8v1.2h3.7V54.8L164.1,54.8z
		 M170.4,54.8h7.6v-1.2h-6.2v-3.8h5.7v-1.2h-5.7v-3.5h6.1v-1.2h-7.6V54.8L170.4,54.8z M189,47.1c-0.3-2.3-2.2-3.6-4.5-3.6
		c-3.4,0-5.2,2.6-5.2,5.8c0,3.2,1.7,5.7,5.1,5.7c2.8,0,4.5-1.7,4.8-4.4h-1.5c-0.1,1.8-1.2,3.2-3.2,3.2c-2.6,0-3.7-2.1-3.7-4.6
		c0-2.3,1.1-4.5,3.7-4.5c1.5,0,2.8,0.8,3.1,2.3H189L189,47.1z M190.9,54.8h1.5v-5h5.8v5h1.5v-11h-1.5v4.7h-5.8v-4.7h-1.5V54.8
		L190.9,54.8z M202,54.8h1.4V46h0l5.7,8.8h1.6v-11h-1.4v8.9h0l-5.8-8.9H202V54.8L202,54.8z M212.5,49.3c0,3,1.8,5.8,5.3,5.8
		c3.5,0,5.3-2.8,5.3-5.8c0-3-1.8-5.8-5.3-5.8C214.3,43.6,212.5,46.3,212.5,49.3L212.5,49.3z M214,49.3c0-2.2,1.1-4.5,3.8-4.5
		c2.7,0,3.8,2.3,3.8,4.5c0,2.2-1.1,4.5-3.8,4.5C215.1,53.9,214,51.5,214,49.3L214,49.3z M224.9,54.8h7.3v-1.2h-5.8v-9.8h-1.5V54.8
		L224.9,54.8z M232.8,49.3c0,3,1.8,5.8,5.3,5.8c3.5,0,5.3-2.8,5.3-5.8c0-3-1.8-5.8-5.3-5.8C234.6,43.6,232.8,46.3,232.8,49.3
		L232.8,49.3z M234.3,49.3c0-2.2,1.1-4.5,3.8-4.5s3.8,2.3,3.8,4.5c0,2.2-1.1,4.5-3.8,4.5S234.3,51.5,234.3,49.3L234.3,49.3z
		 M253.7,54.8h0.9V49h-4.8v1.2h3.5c0.1,2-1.3,3.6-3.5,3.6c-2.4,0-3.8-2.1-3.8-4.4c0-2.4,1.1-4.7,3.8-4.7c1.6,0,3,0.8,3.3,2.4h1.5
		c-0.4-2.6-2.3-3.6-4.7-3.6c-3.5,0-5.2,2.8-5.2,6c0,2.9,2,5.5,5.2,5.5c1.3,0,2.7-0.5,3.5-1.6L253.7,54.8L253.7,54.8z M265.6,43.8
		h-1.7l-3.2,5.2l-3.3-5.2h-1.7l4.3,6.5v4.5h1.5v-4.5L265.6,43.8L265.6,43.8z"/>
</g>
</svg>
