<?xml version="1.0" encoding="utf-8"?>
<!-- Generator: Adobe Illustrator 24.0.1, SVG Export Plug-In . SVG Version: 6.00 Build 0)  -->
<svg version="1.1" id="Vintage_Radio" xmlns="http://www.w3.org/2000/svg" xmlns:xlink="http://www.w3.org/1999/xlink" x="0px"
	 y="0px" viewBox="0 0 998.33 424.68" style="enable-background:new 0 0 998.33 424.68;" xml:space="preserve">
<g>
	<polygon points="158.89,177.12 131.16,106.88 125.14,106.88 155.92,185.01 	"/>
	<polygon points="152.95,192.74 119.13,106.88 113.03,106.88 149.98,200.48 	"/>
	<polygon points="158.11,236.26 209.28,106.88 203.19,106.88 152.09,236.26 	"/>
	<polygon points="182.33,236.26 233.5,106.88 227.41,106.88 176.31,236.26 	"/>
	<polygon points="170.22,236.26 221.39,106.88 215.38,106.88 164.2,236.26 	"/>
	<polygon points="146.94,208.13 106.94,106.88 100.92,106.88 143.73,215.32 	"/>
	<polygon points="139.98,236.26 146.08,236.26 197.17,106.88 191.16,106.88 143.03,228.68 94.91,106.88 88.81,106.88 	"/>
	<rect x="252.43" y="106.88" width="5.62" height="129.38"/>
	<rect x="263.68" y="106.88" width="5.62" height="129.38"/>
	<rect x="274.93" y="106.88" width="5.62" height="129.38"/>
	<rect x="241.18" y="106.88" width="5.62" height="129.38"/>
	<polygon points="415.17,236.26 335.72,106.88 329.08,106.88 408.45,236.26 	"/>
	<polygon points="401.89,236.26 322.36,106.88 315.8,106.88 395.33,236.26 	"/>
	<polygon points="428.22,236.26 428.22,106.88 422.59,106.88 422.59,227.12 348.84,106.88 342.28,106.88 421.58,236.26 	"/>
	<polygon points="325.09,236.26 330.72,236.26 330.72,160.16 325.09,150.71 	"/>
	<polygon points="308.22,236.26 308.22,116.02 382.12,236.26 388.61,236.26 309.31,106.88 302.59,106.88 302.59,236.26 	"/>
	<polygon points="405.72,192.43 405.72,106.88 400.09,106.88 400.09,182.98 	"/>
	<polygon points="313.84,236.26 319.47,236.26 319.47,141.57 313.84,132.04 	"/>
	<polygon points="416.97,211.1 416.97,106.88 411.34,106.88 411.34,201.57 	"/>
	<polygon points="394.47,173.99 394.47,106.88 388.84,106.88 388.84,164.7 	"/>
	<polygon points="336.34,169.15 336.34,236.26 341.97,236.26 341.97,178.45 	"/>
	<rect x="442.51" y="106.88" width="84.38" height="5.62"/>
	<polygon points="504.39,236.26 504.39,135.01 526.89,135.01 526.89,129.38 442.51,129.38 442.51,135.01 465.01,135.01 
		465.01,236.26 470.64,236.26 470.64,135.01 476.26,135.01 476.26,236.26 481.89,236.26 481.89,135.01 487.51,135.01 487.51,236.26 
		493.14,236.26 493.14,135.01 498.76,135.01 498.76,236.26 	"/>
	<rect x="442.51" y="118.13" width="84.38" height="5.62"/>
	<polygon points="584.29,158.13 553.5,236.26 559.52,236.26 587.25,166.02 	"/>
	<polygon points="575.54,203.91 573.35,209.54 606,209.54 603.58,203.91 	"/>
	<polygon points="568.97,220.79 610.38,220.79 608.04,215.16 571.16,215.16 	"/>
	<polygon points="529.29,236.26 535.3,236.26 575.3,135.01 572.1,127.82 	"/>
	<polygon points="579.99,192.66 577.72,198.29 601.47,198.29 599.21,192.66 	"/>
	<polygon points="581.32,150.4 578.35,142.66 541.4,236.26 547.49,236.26 	"/>
	<polygon points="661.86,236.26 610.69,106.88 604.68,106.88 655.77,236.26 	"/>
	<polygon points="523.27,236.26 571.4,114.46 619.52,236.26 625.54,236.26 574.44,106.88 568.35,106.88 517.18,236.26 	"/>
	<polygon points="649.75,236.26 598.58,106.88 592.57,106.88 643.74,236.26 	"/>
	<polygon points="637.65,236.26 586.47,106.88 580.46,106.88 631.55,236.26 	"/>
	<rect x="784.13" y="168.68" width="5.62" height="67.58"/>
	<rect x="772.88" y="168.68" width="5.62" height="67.58"/>
	<rect x="761.63" y="168.68" width="5.62" height="67.58"/>
	<path d="M675.96,121.84c-6.28,6.28-11.28,13.75-15,22.42c-3.72,8.67-5.59,17.77-5.59,27.3c0,10.31,1.91,19.91,5.74,28.79
		c3.83,8.88,8.95,16.33,15.35,22.34s13.83,10.72,22.27,14.1s17.27,5.08,26.48,5.08c10.62,0,20.88-1.88,30.78-5.62v-67.58h-5.62
		v28.44c-7.45,3.59-15.5,5.39-24.14,5.39c-4.22,0-8.16-0.61-11.84-1.84c-3.67-1.22-7.01-3.05-10-5.47c-3-2.42-5.35-5.65-7.07-9.69
		c-1.72-4.04-2.58-8.68-2.58-13.95c0-8.54,3.02-15.83,9.06-21.88c6.04-6.04,13.33-9.06,21.88-9.06c5.26,0,10.14,1.21,14.65,3.63
		c4.5,2.42,8.16,5.72,10.98,9.88l4.61-3.05c-3.33-4.95-7.66-8.87-12.97-11.76s-11.07-4.34-17.27-4.34c-4.95,0-9.68,0.96-14.18,2.89
		c-4.51,1.93-8.4,4.53-11.68,7.81s-5.89,7.18-7.81,11.68c-1.93,4.51-2.89,9.23-2.89,14.18c0,5.99,1.03,11.37,3.09,16.13
		c2.06,4.77,4.84,8.61,8.36,11.52c3.52,2.92,7.46,5.13,11.84,6.64c4.38,1.51,9.04,2.27,13.98,2.27c8.59,0,16.59-1.64,23.98-4.92
		v5.39c-7.66,3.49-15.89,5.23-24.69,5.23c-4.43,0-8.7-0.59-12.81-1.76c-4.12-1.17-7.96-2.93-11.52-5.27
		c-3.57-2.34-6.68-5.18-9.34-8.52c-2.66-3.33-4.74-7.29-6.25-11.88c-1.51-4.58-2.27-9.53-2.27-14.84c0-7.66,1.89-14.71,5.66-21.17
		c3.78-6.46,8.89-11.57,15.35-15.35c6.46-3.78,13.52-5.66,21.17-5.66c7.13,0,13.76,1.65,19.88,4.96c6.12,3.31,11.11,7.77,14.96,13.4
		l4.69-3.05c-4.38-6.46-10.04-11.56-16.99-15.31s-14.47-5.62-22.54-5.62c-8.65,0-16.64,2.14-23.98,6.41
		c-7.34,4.27-13.15,10.08-17.42,17.42c-4.27,7.34-6.41,15.34-6.41,23.98c0,7.4,1.33,14.17,3.98,20.31
		c2.66,6.15,6.24,11.2,10.74,15.16c4.5,3.96,9.65,7.02,15.43,9.18c5.78,2.16,11.85,3.24,18.2,3.24c8.38,0,16.43-1.48,24.14-4.45
		v5.62c-7.81,2.92-16.04,4.38-24.69,4.38c-5.57,0-11-0.78-16.29-2.34c-5.29-1.56-10.17-3.87-14.65-6.91
		c-4.48-3.05-8.4-6.69-11.76-10.94c-3.36-4.24-5.99-9.22-7.89-14.92c-1.9-5.7-2.85-11.81-2.85-18.32c0-7.24,1.41-14.17,4.22-20.78
		c2.81-6.61,6.6-12.3,11.37-17.07s10.46-8.55,17.07-11.37c6.61-2.81,13.54-4.22,20.78-4.22c9.01,0,17.41,2.1,25.2,6.29
		c7.79,4.19,14.13,9.88,19.02,17.07l4.69-3.05c-5.42-7.97-12.42-14.28-21.02-18.95c-8.59-4.66-17.89-6.99-27.89-6.99
		c-10.68,0-20.55,2.64-29.61,7.93c-9.06,5.29-16.24,12.46-21.52,21.52c-5.29,9.06-7.93,18.93-7.93,29.61
		c0,7.08,1.05,13.76,3.16,20.04c2.11,6.28,5.03,11.77,8.75,16.48c3.72,4.71,8.07,8.78,13.05,12.19c4.97,3.41,10.39,5.99,16.25,7.73
		c5.86,1.75,11.89,2.62,18.09,2.62c8.54,0,16.69-1.3,24.45-3.91v5.39c-8.12,2.76-16.59,4.14-25.39,4.14
		c-8.39,0-16.46-1.57-24.22-4.73c-7.76-3.15-14.57-7.49-20.43-13.01c-5.86-5.52-10.55-12.37-14.06-20.55
		C662.76,189.8,661,181,661,171.57c0-8.75,1.71-17.12,5.12-25.12c3.41-7.99,8.01-14.88,13.79-20.66s12.67-10.38,20.66-13.79
		c7.99-3.41,16.37-5.12,25.12-5.12c10.88,0,21.03,2.53,30.43,7.58c9.4,5.05,17.07,11.93,23.01,20.62l4.69-3.05
		c-6.46-9.48-14.79-16.98-25-22.5c-10.21-5.52-21.25-8.28-33.12-8.28c-9.53,0-18.63,1.86-27.3,5.59
		C689.71,110.57,682.24,115.57,675.96,121.84z"/>
	<rect x="821.55" y="106.88" width="5.62" height="129.38"/>
	<rect x="832.8" y="106.88" width="5.62" height="129.38"/>
	<polygon points="909.52,236.26 909.52,230.63 849.68,230.63 849.68,225.01 909.52,225.01 909.52,219.38 849.68,219.38 
		849.68,213.76 909.52,213.76 909.52,208.13 849.68,208.13 849.68,185.63 880.38,185.63 880.38,180.01 849.68,180.01 849.68,174.38 
		880.38,174.38 880.38,168.76 849.68,168.76 849.68,163.13 880.38,163.13 880.38,157.51 849.68,157.51 849.68,135.01 909.52,135.01 
		909.52,129.38 849.68,129.38 849.68,123.76 909.52,123.76 909.52,118.13 849.68,118.13 849.68,112.51 909.52,112.51 909.52,106.88 
		844.05,106.88 844.05,236.26 	"/>
	<rect x="810.3" y="106.88" width="5.62" height="129.38"/>
	<path d="M401.32,293.59v-0.12c0-3.72-1.28-6.89-3.54-9.21c-2.75-2.68-6.95-4.27-12.32-4.27h-19.03v42.7h7.5v-14.88h9.27h0.12
		l10.49,14.88h8.85l-11.53-16.17C397.11,304.82,401.32,300.61,401.32,293.59z M373.92,301.16v-14.34h10.92
		c5.55,0,8.85,2.5,8.85,7.08v0.12c0,4.33-3.42,7.14-8.79,7.14H373.92z"/>
	<path d="M451.52,279.68h-6.96l-18.79,43.01h7.69l4.39-10.31h20.19l4.33,10.31h7.93L451.52,279.68z M440.6,305.73l7.32-17.08
		l7.38,17.08H440.6z"/>
	<path d="M512.03,279.99h-15.92v42.7h15.92c13.42,0,22.69-9.33,22.69-21.35v-0.12C534.72,289.2,525.45,279.99,512.03,279.99z
		 M526.85,301.46c0,8.36-5.86,14.4-14.82,14.4h-8.42v-29.04h8.42c8.97,0,14.82,6.16,14.82,14.52V301.46z"/>
	<rect x="564.08" y="279.99" width="7.5" height="42.7"/>
	<path d="M623.21,279.26c-13.12,0-22.39,10.07-22.39,22.08v0.12c0,12.02,9.15,21.96,22.27,21.96s22.39-10.07,22.39-22.08v-0.12
		C645.48,289.2,636.33,279.26,623.21,279.26z M637.61,301.46c0,8.3-5.92,15.07-14.4,15.07s-14.52-6.89-14.52-15.19v-0.12
		c0-8.3,5.92-15.07,14.4-15.07s14.52,6.89,14.52,15.19V301.46z"/>
	<rect x="702.41" y="298.99" width="206.93" height="5.5"/>
	<rect x="97.32" y="298.99" width="206.93" height="5.5"/>
</g>
</svg>
